PathFileType	4	(X/Y/Z)	T1_P1_NoVision_Movement_3_0-681.trc
DataRate	CameraRate	NumFrames	NumMarkers	Units	OrigDataRate	OrigDataStartFrame	OrigNumFrames
60	60	4	27	m	60	85	681
Frame#	Time	RHip			RKnee			RAnkle			RBigToe			RSmallToe			RHeel			LHip			LKnee			LAnkle			LBigToe			LSmallToe			LHeel			Neck			Head			Nose			RShoulder			RElbow			RWrist			RThumb			RIndex			RPinky			LShoulder			LElbow			LWrist			LThumb			LIndex			LPinky		
		X1	Y1	Z1	X2	Y2	Z2	X3	Y3	Z3	X4	Y4	Z4	X5	Y5	Z5	X6	Y6	Z6	X7	Y7	Z7	X8	Y8	Z8	X9	Y9	Z9	X10	Y10	Z10	X11	Y11	Z11	X12	Y12	Z12	X13	Y13	Z13	X14	Y14	Z14	X15	Y15	Z15	X16	Y16	Z16	X17	Y17	Z17	X18	Y18	Z18	X19	Y19	Z19	X20	Y20	Z20	X21	Y21	Z21	X22	Y22	Z22	X23	Y23	Z23	X24	Y24	Z24	X25	Y25	Z25	X26	Y26	Z26	X27	Y27	Z27
86	1.4333333333333333	-88.59707567207806	3830.451112083873	-568.6065229389878	250.7199899359375	3983.800980609645	-534.1405873012345	624.9571869053166	4147.965911402461	-523.8784541806407	702.9857021286651	4096.442529079987	-479.00287311223826	701.5491789148225	4067.6608651685433	-533.5643253364852	651.9741504573341	4162.244311436625	-525.2092924355794	-122.85870673328718	3955.915836252642	-404.48724011799374	216.59262816671233	4050.945621259075	-391.59073606410914	577.9671512008719	4195.36415636082	-383.1702824464428	686.1298197457136	4191.120720590288	-349.81066459397175	647.528491127818	4256.182931535914	-321.0056088121372	622.4501713202875	4261.827480849772	-426.5031941323832	-697.7222875717988	3769.6232478252505	-549.9653380024379	-925.3797006025773	3575.774743197914	-477.01194338357607	-789.2177725216187	3586.5637671645	-436.8928734065817	-576.8107185283909	3712.8153493566338	-682.0335649037994	-353.0584878909935	3721.440897762846	-720.7055266829233	-218.83683797975635	3574.831269125246	-558.6381552577267	-207.1123163791195	3552.6348004262	-441.5366777945209	-193.4594976373931	3534.2408885637446	-413.6272371328755	-148.43969605971094	3534.0462786071284	-432.1287675149739	-637.4966093769207	3887.3241217480872	-426.2507385082969	-406.6041475794745	4027.79348015731	-364.6465174908201	-155.27149272581713	3995.288859898181	-264.80219393600873	-22.18456621420137	4041.17356086058	-291.53993495555824	-0.3330543206188852	3996.6371639353865	-231.2148791992835	-9.168716279951314	4041.3311761239593	-246.44794406776785
87	1.45	-100.09842375471176	3854.6352218632496	-574.4820188707857	257.7786343297479	3987.62954422827	-540.076102868613	624.8934793759223	4148.137300610363	-523.8871905987985	702.8139452696747	4095.8016425778187	-478.57544673948695	701.461421303906	4067.282267353955	-533.3148176353689	651.8188703270341	4162.37274570132	-525.0934331221351	-132.11515245969133	3954.228156684573	-409.98687013378253	214.2952663780841	4029.852366535866	-377.07711922321175	578.082666013258	4195.22006042804	-383.2435109786614	680.0871564005356	4187.300752283608	-350.60394654816406	646.0900089388075	4230.120476551089	-324.643180892591	622.4384873236252	4261.745017622908	-426.58850785963455	-697.9122091549533	3770.0065859578917	-549.8168255617157	-925.3116846076703	3575.8049757097247	-477.15130978830854	-789.2388832681881	3586.6644499098625	-437.00157722393436	-576.9084025262581	3713.3335203704023	-682.294992430829	-357.7791385632877	3719.6731003460945	-720.9057009092511	-232.31057008029387	3570.3649502054423	-557.9299381029665	-227.26706919229866	3542.5713361045555	-438.5423222947451	-204.08663871553352	3530.2853582207313	-413.43293404153513	-181.25530932087054	3527.337607958499	-426.98942740812225	-637.5348116506369	3888.4421559290768	-426.6887723856315	-406.60352354293076	4027.2786537822985	-364.52756518093304	-149.45992919470444	4001.1842024996417	-272.62901564439954	-17.009957673362926	4045.6040179310485	-293.3527241826728	4.191846936982188	4000.7831238708313	-233.07227893472506	-7.950601483279369	4060.913600943187	-258.89676549766745
88	1.4666666666666666	-99.72485051274332	3874.927478466894	-589.6391744030514	262.7422631845926	3987.2911021252457	-539.3836557731696	631.0159088647099	4150.79760421308	-523.1052390150542	696.3449162355257	4090.6484456026083	-476.0245072254842	701.3143159266382	4066.3164794732297	-532.9952900941698	651.7567192059638	4161.565112931042	-524.8558661264652	-131.75876580510308	3974.268997238948	-424.6207421453306	214.13483505340304	4029.8570077825557	-377.02399910056073	577.7365347779755	4195.268108023296	-383.2535658989312	679.9298371611483	4187.037818814565	-350.39121948993056	638.8638989925149	4225.302840841367	-322.5237846427887	616.6614841795215	4262.240570763706	-427.27102080439187	-697.8554661410936	3769.8471803029543	-549.7303517474976	-925.2632922064118	3575.773683001152	-477.1245276854213	-789.2119494633766	3586.603240575016	-436.93823419141864	-582.3290487354313	3711.4164284412404	-676.7138452026272	-349.4546037858541	3691.3664488093855	-717.7297276703148	-257.6622460292779	3535.1483498062994	-536.4086439219766	-293.4050257927464	3516.48794798985	-428.8170839387152	-246.5538342799688	3511.808019742471	-399.20964670219485	-192.4352692875739	3528.120812065235	-418.06950793364103	-637.4142926131386	3888.1572560927007	-426.606744663272	-406.5687539985831	4027.410256514088	-364.76513228718443	-149.23241017223125	4001.002357722022	-272.6049920975623	-17.688969327357004	4042.622745586559	-286.2559334883009	9.094483798584138	4003.4573805070604	-233.7617060713168	-9.332601844735619	4040.353330764906	-246.09381195208215
89	1.4833333333333334	-105.4110858386174	3871.0455645901284	-587.7588301792633	262.7766247383903	3986.9664133717024	-539.2122985579703	620.4213956536794	4117.406071225094	-516.7495142752117	696.2496643264805	4091.2701659105082	-476.3085004365998	701.381889450715	4066.894513562188	-533.2199195678684	651.6925248706357	4161.278972422107	-524.8139679871567	-132.65783830374923	3981.5744642372433	-415.314269046827	220.06515665498603	4032.4527784952265	-376.19828366895604	577.814212969577	4194.943857551262	-383.04300219992604	686.1614808820073	4191.1179652967	-349.97444676556165	645.0664243340092	4229.778995962133	-318.74897361758843	611.8857165360442	4240.089455283116	-412.9106974470458	-697.8009211760856	3769.7097374320224	-549.5373185355738	-921.4072063471423	3578.7186674417167	-478.22659294304606	-789.197612515825	3586.7879861138017	-437.0638153329075	-576.6590516885393	3713.2120690092825	-682.221285576589	-341.6831323376259	3669.9833319794407	-705.0539607375332	-290.0699455877855	3497.9495818670184	-527.0923874446881	-306.60425674926216	3473.240056395665	-417.1630912846239	-298.8205945251005	3478.8568718264755	-394.29804544065155	-220.21793700669375	3497.745866190112	-402.13421453454873	-637.4752522015337	3888.6772349156486	-426.81379611570384	-406.6536440220838	4027.449968311784	-364.70264585446665	-148.96299468725934	4001.2264975353	-272.6638815316015	-17.964258636939622	4043.0749186946123	-286.83051340712024	9.100144011125415	4003.575682515675	-233.87265860557727	-9.561614842528995	4040.3742115510395	-246.03562342248122
